<?xml version="1.0" encoding="UTF-8" standalone="no" ?>
<!DOCTYPE svg PUBLIC "-//W3C//DTD SVG 1.1//EN" "http://www.w3.org/Graphics/SVG/1.1/DTD/svg11.dtd">
<svg xmlns="http://www.w3.org/2000/svg" xmlns:xlink="http://www.w3.org/1999/xlink" version="1.1" width="500" height="500" viewBox="0 0 500 500" xml:space="preserve">
<desc>Created with Fabric.js 4.6.0</desc>
<defs>
</defs>
<g transform="matrix(0.22 0 0 0.84 274.2 203.58)" id="5m2S7aIecyinzAuCZyY4l"  >
<path style="stroke: rgb(0,121,243); stroke-width: 1; stroke-dasharray: none; stroke-linecap: butt; stroke-dashoffset: 0; stroke-linejoin: miter; stroke-miterlimit: 4; fill: rgb(75,163,75); fill-rule: nonzero; opacity: 1;" vector-effect="non-scaling-stroke"  transform=" translate(0, 0)" d="M -60.47938 -60.47938 L 60.479369999999996 -60.47938 L 60.479369999999996 60.479369999999996 L -60.47938 60.479369999999996 z" stroke-linecap="round" />
</g>
<g transform="matrix(1 0 0 1 274.2 137.34)" id="d4kyml0cxx5P85C6_JEbC"  >
<path style="stroke: none; stroke-width: 1; stroke-dasharray: none; stroke-linecap: butt; stroke-dashoffset: 0; stroke-linejoin: miter; stroke-miterlimit: 4; fill: rgb(211,150,95); fill-rule: nonzero; opacity: 1;" vector-effect="non-scaling-stroke"  transform=" translate(-14.5, -16.17)" d="M 21.75 16.17105 L 29 32.3421 L 14.5 32.3421 L 0 32.3421 L 7.25 16.17105 L 14.5 0 z" stroke-linecap="round" />
</g>
<g transform="matrix(1 0 0 1 168.62 94.76)" id="hCafdZVxoIN0pcObfAlzJ"  >
<path style="stroke: rgb(0,0,0); stroke-width: 1; stroke-dasharray: none; stroke-linecap: butt; stroke-dashoffset: 0; stroke-linejoin: miter; stroke-miterlimit: 4; fill: rgb(255,255,255); fill-rule: nonzero; opacity: 1;" vector-effect="non-scaling-stroke"  transform=" translate(0, 0)" d="M 0 0" stroke-linecap="round" />
</g>
<g transform="matrix(1.42 0 0 1.42 276.7 195.09)" id="U_EMua-bA2mtg926X0Hde"  >
<path style="stroke: rgb(203,151,105); stroke-width: 12; stroke-dasharray: none; stroke-linecap: butt; stroke-dashoffset: 0; stroke-linejoin: miter; stroke-miterlimit: 4; fill: rgb(255,255,255); fill-opacity: 0; fill-rule: nonzero; opacity: 1;" vector-effect="non-scaling-stroke"  transform=" translate(0, 0)" d="M -14.89722 -56.94594 L -57.971019999999996 -1.0250800000000027 L -3.3444899999999933 56.94593 L 57.97101000000001 -1.0250800000000027 L 12.205680000000008 -1.0250800000000027 L 7.0764700000000085 -1.0250800000000027" stroke-linecap="round" />
</g>
<g transform="matrix(1 0 0 1 255.02 117.06)" id="RlbG4vyv1_FMW2L_bwXvB"  >
<path style="stroke: rgb(0,0,0); stroke-width: 1; stroke-dasharray: none; stroke-linecap: butt; stroke-dashoffset: 0; stroke-linejoin: miter; stroke-miterlimit: 4; fill: rgb(255,255,255); fill-rule: nonzero; opacity: 1;" vector-effect="non-scaling-stroke"  transform=" translate(0, 0)" d="M 0 0" stroke-linecap="round" />
</g>
<g transform="matrix(1.69 0 0 1 281.14 116.56)" id="8Qay7CjediMQLoll-zWyu"  >
<path style="stroke: rgb(191,138,90); stroke-width: 12; stroke-dasharray: none; stroke-linecap: butt; stroke-dashoffset: 0; stroke-linejoin: miter; stroke-miterlimit: 4; fill: rgb(255,255,255); fill-rule: nonzero; opacity: 1;" vector-effect="non-scaling-stroke"  transform=" translate(0, 0)" d="M -17.34028 0 L 17.34028 0" stroke-linecap="round" />
</g>
</svg>